<svg width="16" height="16" viewBox="0 0 16 16" fill="none" xmlns="http://www.w3.org/2000/svg">
<path d="M15.0668 13.6L12.1335 10.6667C12.8668 9.60001 13.3334 8.33336 13.3334 6.93336C13.3334 3.46669 10.4667 0.600006 7.00002 0.600006C3.53335 0.600006 0.666687 3.46669 0.666687 6.93336C0.666687 10.4 3.53335 13.2667 7.00002 13.2667C8.40002 13.2667 9.66675 12.8 10.7334 12.0667L13.6667 15L15.0668 13.6ZM2.66669 7.00001C2.66669 4.60001 4.60002 2.66668 7.00002 2.66668C9.40002 2.66668 11.3334 4.60001 11.3334 7.00001C11.3334 9.40001 9.40002 11.3333 7.00002 11.3333C4.60002 11.3333 2.66669 9.40001 2.66669 7.00001Z" fill="#4C5272"/>
</svg>
