<svg width="38" height="36" viewBox="0 0 38 36" fill="none" xmlns="http://www.w3.org/2000/svg">
<path d="M2.375 18C2.375 15.0163 3.62611 12.1548 5.85311 10.045C8.0801 7.93526 11.1006 6.75 14.25 6.75H23.75C26.8994 6.75 29.9199 7.93526 32.1469 10.045C34.3739 12.1548 35.625 15.0163 35.625 18C35.625 20.9837 34.3739 23.8452 32.1469 25.955C29.9199 28.0647 26.8994 29.25 23.75 29.25H14.25C12.6906 29.25 11.1464 28.959 9.70563 28.3936C8.26489 27.8283 6.9558 26.9996 5.85311 25.955C3.62611 23.8452 2.375 20.9837 2.375 18ZM14.25 9C11.7304 9 9.31408 9.94821 7.53249 11.636C5.75089 13.3239 4.75 15.6131 4.75 18C4.75 20.3869 5.75089 22.6761 7.53249 24.364C9.31408 26.0518 11.7304 27 14.25 27H23.75C26.2696 27 28.6859 26.0518 30.4675 24.364C32.2491 22.6761 33.25 20.3869 33.25 18C33.25 15.6131 32.2491 13.3239 30.4675 11.636C28.6859 9.94821 26.2696 9 23.75 9H14.25Z" fill="#295FF3"/>
</svg>
