<svg width="32" height="32" viewBox="0 0 32 32" fill="none" xmlns="http://www.w3.org/2000/svg">
<path d="M19.6001 8.4003C19.3557 8.64954 19.2189 8.98463 19.2189 9.33363C19.2189 9.68264 19.3557 10.0177 19.6001 10.267L21.7334 12.4003C21.9826 12.6446 22.3177 12.7814 22.6667 12.7814C23.0157 12.7814 23.3508 12.6446 23.6001 12.4003L28.6267 7.37363C29.2972 8.85522 29.5002 10.5059 29.2087 12.1058C28.9172 13.7057 28.145 15.1788 26.9951 16.3287C25.8452 17.4786 24.3721 18.2507 22.7722 18.5422C21.1724 18.8337 19.5216 18.6307 18.0401 17.9603L8.82672 27.1736C8.29629 27.7041 7.57686 28.0021 6.82672 28.0021C6.07657 28.0021 5.35715 27.7041 4.82672 27.1736C4.29629 26.6432 3.99829 25.9238 3.99829 25.1736C3.99829 24.4235 4.29629 23.7041 4.82672 23.1736L14.0401 13.9603C13.3696 12.4787 13.1666 10.828 13.4581 9.22811C13.7496 7.62822 14.5218 6.15517 15.6717 5.00526C16.8216 3.85535 18.2946 3.08319 19.8945 2.79169C21.4944 2.50019 23.1451 2.70318 24.6267 3.37363L19.6134 8.38697L19.6001 8.4003Z" stroke="#E1E5F0" stroke-width="2" stroke-linecap="round" stroke-linejoin="round"/>
</svg>
